<svg width="512" height="512" viewBox="0 0 512 512" fill="none" xmlns="http://www.w3.org/2000/svg">
  <!-- Background -->
  <rect width="512" height="512" fill="#10b981" rx="120"/>
  
  <!-- Leaf shape for Sikuwat (agricultural theme) -->
  <g transform="translate(256, 256)">
    <!-- Left leaf -->
    <path d="M -80 0 Q -120 -65 -105 -135 Q -95 -120 -65 -105 Q -55 -80 -40 -40 Q -25 -15 0 0 Z" fill="#ffffff" opacity="0.9"/>
    
    <!-- Right leaf -->
    <path d="M 80 0 Q 120 -65 105 -135 Q 95 -120 65 -105 Q 55 -80 40 -40 Q 25 -15 0 0 Z" fill="#ffffff" opacity="0.7"/>
    
    <!-- Center stem -->
    <path d="M 0 0 L 0 100 Q -8 135 0 160" stroke="#ffffff" stroke-width="12" fill="none" stroke-linecap="round"/>
    
    <!-- Bottom leaf -->
    <path d="M 0 130 Q -40 145 -55 185 Q -25 170 0 170 Q 25 170 55 185 Q 40 145 0 130 Z" fill="#ffffff" opacity="0.8"/>
  </g>
</svg>
